M48
; DRILL file {KiCad (5.1.6)-1} date 11/11/20 15:34:45
; FORMAT={-:-/ absolute / inch / decimal}
; #@! TF.CreationDate,2020-11-11T15:34:45-07:00
; #@! TF.GenerationSoftware,Kicad,Pcbnew,(5.1.6)-1
FMAT,2
INCH
T1C0.0472
T2C0.0512
T3C0.1200
T4C0.2402
%
G90
G05
T1
X3.087Y-9.4245
X3.087Y-10.0245
X4.3258Y-11.0151
X4.3258Y-11.6151
X4.6367Y-11.0151
X4.6367Y-11.6151
X3.6939Y-6.1912
X3.6939Y-6.7912
X4.3227Y-2.9953
X4.3227Y-3.5953
X4.621Y-6.1895
X4.621Y-6.7895
X4.0031Y-2.1873
X4.0031Y-2.7873
X3.0826Y-4.5943
X3.0826Y-5.1943
X4.3121Y-1.3588
X4.3121Y-1.9588
X3.3901Y-7.0017
X3.3901Y-7.6017
X3.3852Y-1.3588
X3.3852Y-1.9588
X3.4018Y-8.6009
X3.4018Y-9.2009
X4.0137Y-9.4245
X4.0137Y-10.0245
X4.6277Y-8.6038
X4.6277Y-9.2038
X3.0909Y-10.2301
X3.0909Y-10.8301
X3.3848Y-6.1912
X3.3848Y-6.7912
X4.62Y-5.3902
X4.62Y-5.9902
X4.3121Y-6.1895
X4.3121Y-6.7895
X4.6172Y-3.7944
X4.6172Y-4.3944
X3.0764Y-5.3947
X3.0764Y-5.9947
X3.6942Y-1.3588
X3.6942Y-1.9588
X3.0929Y-8.6009
X3.0929Y-9.2009
X3.087Y-7.0017
X3.087Y-7.6017
X3.7048Y-9.4245
X3.7048Y-10.0245
X4.3221Y-8.6038
X4.3221Y-9.2038
X4.6321Y-11.8
X4.6321Y-12.4
X4.0021Y-5.3902
X4.0021Y-5.9902
X3.7039Y-5.3902
X3.7039Y-5.9902
X4.3103Y-3.7944
X4.3103Y-4.3944
X4.6187Y-4.5943
X4.6187Y-5.1943
X3.3958Y-2.9953
X3.3958Y-3.5953
X4.0031Y-1.3588
X4.0031Y-1.9588
X3.6991Y-7.0017
X3.6991Y-7.6017
X4.6296Y-10.2274
X4.6296Y-10.8274
X4.6281Y-7.7932
X4.6281Y-8.3932
X3.3958Y-9.4245
X3.3958Y-10.0245
X3.09Y-11.0151
X3.09Y-11.6151
X3.1136Y-11.8056
X3.7136Y-11.8056
X4.0031Y-6.1912
X4.0031Y-6.7912
X4.0172Y-11.8008
X4.0172Y-12.4008
X4.3111Y-5.3902
X4.3111Y-5.9902
X4.0035Y-3.7944
X4.0035Y-4.3944
X4.0008Y-4.5943
X4.0008Y-5.1943
X3.3953Y-2.1877
X3.3953Y-2.7877
X3.3905Y-7.793
X3.3905Y-8.393
X4.6316Y-9.4245
X4.6316Y-10.0245
X4.0197Y-8.6009
X4.0197Y-9.2009
X3.7045Y-7.7932
X3.7045Y-8.3932
X3.3989Y-11.0151
X3.3989Y-11.6151
X4.0137Y-2.9953
X4.0137Y-3.5953
X3.0756Y-6.1912
X3.0756Y-6.7912
X3.3785Y-5.3915
X3.3785Y-5.9915
X4.3121Y-2.1873
X4.3121Y-2.7873
X3.3829Y-4.5943
X3.3829Y-5.1943
X3.0875Y-2.1877
X3.0875Y-2.7877
X4.008Y-7.0017
X4.008Y-7.6017
X3.7028Y-10.2274
X3.7028Y-10.8274
X4.0117Y-10.2274
X4.0117Y-10.8274
X4.3192Y-7.7932
X4.3192Y-8.3932
X3.7079Y-11.0151
X3.7079Y-11.6151
X3.7048Y-2.9953
X3.7048Y-3.5953
X4.317Y-7.0017
X4.317Y-7.6017
X3.6966Y-3.7944
X3.6966Y-4.3944
X3.6919Y-4.5943
X3.6919Y-5.1943
X3.087Y-1.3588
X3.087Y-1.9588
X3.0829Y-3.7944
X3.0829Y-4.3944
X4.621Y-2.1873
X4.621Y-2.7873
X3.0923Y-7.793
X3.0923Y-8.393
X4.3207Y-10.2274
X4.3207Y-10.8274
X4.3253Y-11.8
X4.3253Y-12.4
X4.0102Y-7.7932
X4.0102Y-8.3932
X3.3989Y-10.227
X3.3989Y-10.827
X4.0168Y-11.0151
X4.0168Y-11.6151
X4.6209Y-2.9953
X4.6209Y-3.5953
X3.0869Y-2.9953
X3.0869Y-3.5953
X4.6259Y-7.0017
X4.6259Y-7.6017
X3.6942Y-2.1873
X3.6942Y-2.7873
X4.3098Y-4.5943
X4.3098Y-5.1943
X3.3898Y-3.7944
X3.3898Y-4.3944
X4.621Y-1.3588
X4.621Y-1.9588
X3.7108Y-8.6009
X3.7108Y-9.2009
X4.3227Y-9.4245
X4.3227Y-10.0245
T2
X3.5757Y-12.055
X3.5757Y-12.2518
X3.6741Y-12.1534
T3
X3.0871Y-1.1137
X3.1205Y-12.1718
T4
X3.3288Y-12.7656
X4.5087Y-12.7656
T0
M30
