%TF.GenerationSoftware,KiCad,Pcbnew,(5.1.6)-1*%
%TF.CreationDate,2020-11-11T15:34:42-07:00*%
%TF.ProjectId,HVProbe,48565072-6f62-4652-9e6b-696361645f70,rev?*%
%TF.SameCoordinates,Original*%
%TF.FileFunction,Copper,L2,Bot*%
%TF.FilePolarity,Positive*%
%FSLAX46Y46*%
G04 Gerber Fmt 4.6, Leading zero omitted, Abs format (unit mm)*
G04 Created by KiCad (PCBNEW (5.1.6)-1) date 2020-11-11 15:34:42*
%MOMM*%
%LPD*%
G01*
G04 APERTURE LIST*
%TA.AperFunction,ComponentPad*%
%ADD10C,2.340000*%
%TD*%
%TA.AperFunction,ComponentPad*%
%ADD11C,2.400000*%
%TD*%
%TA.AperFunction,ComponentPad*%
%ADD12O,2.400000X2.400000*%
%TD*%
%TA.AperFunction,ComponentPad*%
%ADD13C,4.064000*%
%TD*%
%TA.AperFunction,ComponentPad*%
%ADD14C,10.160000*%
%TD*%
G04 APERTURE END LIST*
D10*
%TO.P,RV1,3*%
%TO.N,GND*%
X90822140Y-311196360D03*
%TO.P,RV1,2*%
X93322140Y-308696360D03*
%TO.P,RV1,1*%
%TO.N,Net-(R82-Pad2)*%
X90822140Y-306196360D03*
%TD*%
D11*
%TO.P,R40,1*%
%TO.N,Net-(R40-Pad1)*%
X101678740Y-157256480D03*
D12*
%TO.P,R40,2*%
%TO.N,Net-(R39-Pad2)*%
X101678740Y-172496480D03*
%TD*%
%TO.P,R37,2*%
%TO.N,Net-(R37-Pad2)*%
X78120748Y-172496480D03*
D11*
%TO.P,R37,1*%
%TO.N,Net-(R36-Pad1)*%
X78120748Y-157256480D03*
%TD*%
%TO.P,R38,1*%
%TO.N,Net-(R38-Pad1)*%
X85973412Y-157256480D03*
D12*
%TO.P,R38,2*%
%TO.N,Net-(R37-Pad2)*%
X85973412Y-172496480D03*
%TD*%
%TO.P,R39,2*%
%TO.N,Net-(R39-Pad2)*%
X93826076Y-172496480D03*
D11*
%TO.P,R39,1*%
%TO.N,Net-(R38-Pad1)*%
X93826076Y-157256480D03*
%TD*%
D12*
%TO.P,R18,2*%
%TO.N,Net-(R17-Pad2)*%
X117370860Y-91321012D03*
D11*
%TO.P,R18,1*%
%TO.N,Net-(R18-Pad1)*%
X117370860Y-76081012D03*
%TD*%
%TO.P,R15,1*%
%TO.N,Net-(R14-Pad1)*%
X94101412Y-76081012D03*
D12*
%TO.P,R15,2*%
%TO.N,Net-(R15-Pad2)*%
X94101412Y-91321012D03*
%TD*%
D11*
%TO.P,R17,1*%
%TO.N,Net-(R16-Pad1)*%
X109795564Y-76081012D03*
D12*
%TO.P,R17,2*%
%TO.N,Net-(R17-Pad2)*%
X109795564Y-91321012D03*
%TD*%
%TO.P,R16,2*%
%TO.N,Net-(R15-Pad2)*%
X101948488Y-91321012D03*
D11*
%TO.P,R16,1*%
%TO.N,Net-(R16-Pad1)*%
X101948488Y-76081012D03*
%TD*%
%TO.P,R13,1*%
%TO.N,Net-(R12-Pad1)*%
X78407260Y-76081012D03*
D12*
%TO.P,R13,2*%
%TO.N,Net-(R13-Pad2)*%
X78407260Y-91321012D03*
%TD*%
%TO.P,R14,2*%
%TO.N,Net-(R13-Pad2)*%
X86254336Y-91321012D03*
D11*
%TO.P,R14,1*%
%TO.N,Net-(R14-Pad1)*%
X86254336Y-76081012D03*
%TD*%
D13*
%TO.P,J1,1*%
%TO.N,Net-(J1-Pad1)*%
X78412340Y-28287980D03*
%TD*%
D14*
%TO.P,J2,2*%
%TO.N,GND*%
X84550980Y-324246240D03*
%TO.P,J2,1*%
%TO.N,Net-(J2-Pad1)*%
X114520980Y-324246240D03*
%TD*%
D13*
%TO.P,J3,1*%
%TO.N,GND*%
X79260700Y-309163720D03*
%TD*%
D11*
%TO.P,R1,1*%
%TO.N,Net-(R1-Pad1)*%
X78409800Y-49753520D03*
D12*
%TO.P,R1,2*%
%TO.N,Net-(J1-Pad1)*%
X78409800Y-34513520D03*
%TD*%
D11*
%TO.P,R2,1*%
%TO.N,Net-(R1-Pad1)*%
X85985096Y-49753520D03*
D12*
%TO.P,R2,2*%
%TO.N,Net-(R2-Pad2)*%
X85985096Y-34513520D03*
%TD*%
%TO.P,R3,2*%
%TO.N,Net-(R2-Pad2)*%
X93832172Y-34513520D03*
D11*
%TO.P,R3,1*%
%TO.N,Net-(R3-Pad1)*%
X93832172Y-49753520D03*
%TD*%
%TO.P,R4,1*%
%TO.N,Net-(R3-Pad1)*%
X101679248Y-49753520D03*
D12*
%TO.P,R4,2*%
%TO.N,Net-(R4-Pad2)*%
X101679248Y-34513520D03*
%TD*%
%TO.P,R5,2*%
%TO.N,Net-(R4-Pad2)*%
X109526324Y-34513520D03*
D11*
%TO.P,R5,1*%
%TO.N,Net-(R5-Pad1)*%
X109526324Y-49753520D03*
%TD*%
%TO.P,R6,1*%
%TO.N,Net-(R5-Pad1)*%
X117373400Y-49753520D03*
D12*
%TO.P,R6,2*%
%TO.N,Net-(R6-Pad2)*%
X117373400Y-34513520D03*
%TD*%
%TO.P,R7,2*%
%TO.N,Net-(R6-Pad2)*%
X117373400Y-70797420D03*
D11*
%TO.P,R7,1*%
%TO.N,Net-(R7-Pad1)*%
X117373400Y-55557420D03*
%TD*%
%TO.P,R8,1*%
%TO.N,Net-(R7-Pad1)*%
X109526324Y-55557420D03*
D12*
%TO.P,R8,2*%
%TO.N,Net-(R8-Pad2)*%
X109526324Y-70797420D03*
%TD*%
%TO.P,R9,2*%
%TO.N,Net-(R8-Pad2)*%
X101679248Y-70797420D03*
D11*
%TO.P,R9,1*%
%TO.N,Net-(R10-Pad1)*%
X101679248Y-55557420D03*
%TD*%
%TO.P,R10,1*%
%TO.N,Net-(R10-Pad1)*%
X93832172Y-55557420D03*
D12*
%TO.P,R10,2*%
%TO.N,Net-(R10-Pad2)*%
X93832172Y-70797420D03*
%TD*%
D11*
%TO.P,R20,1*%
%TO.N,Net-(R20-Pad1)*%
X109482636Y-111617760D03*
D12*
%TO.P,R20,2*%
%TO.N,Net-(R19-Pad2)*%
X109482636Y-96377760D03*
%TD*%
D11*
%TO.P,R19,1*%
%TO.N,Net-(R18-Pad1)*%
X117276880Y-111617760D03*
D12*
%TO.P,R19,2*%
%TO.N,Net-(R19-Pad2)*%
X117276880Y-96377760D03*
%TD*%
%TO.P,R12,2*%
%TO.N,Net-(R11-Pad2)*%
X78422500Y-55567420D03*
D11*
%TO.P,R12,1*%
%TO.N,Net-(R12-Pad1)*%
X78422500Y-70807420D03*
%TD*%
%TO.P,R11,1*%
%TO.N,Net-(R10-Pad2)*%
X86240620Y-70807420D03*
D12*
%TO.P,R11,2*%
%TO.N,Net-(R11-Pad2)*%
X86240620Y-55567420D03*
%TD*%
%TO.P,R21,2*%
%TO.N,Net-(R21-Pad2)*%
X101688392Y-96377760D03*
D11*
%TO.P,R21,1*%
%TO.N,Net-(R20-Pad1)*%
X101688392Y-111617760D03*
%TD*%
%TO.P,R22,1*%
%TO.N,Net-(R22-Pad1)*%
X93894148Y-111617760D03*
D12*
%TO.P,R22,2*%
%TO.N,Net-(R21-Pad2)*%
X93894148Y-96377760D03*
%TD*%
%TO.P,R23,2*%
%TO.N,Net-(R23-Pad2)*%
X86099904Y-96377760D03*
D11*
%TO.P,R23,1*%
%TO.N,Net-(R22-Pad1)*%
X86099904Y-111617760D03*
%TD*%
D12*
%TO.P,R24,2*%
%TO.N,Net-(R23-Pad2)*%
X78305660Y-96377760D03*
D11*
%TO.P,R24,1*%
%TO.N,Net-(R24-Pad1)*%
X78305660Y-111617760D03*
%TD*%
%TO.P,R25,1*%
%TO.N,Net-(R24-Pad1)*%
X78298040Y-131935220D03*
D12*
%TO.P,R25,2*%
%TO.N,Net-(R25-Pad2)*%
X78298040Y-116695220D03*
%TD*%
%TO.P,R26,2*%
%TO.N,Net-(R25-Pad2)*%
X85926676Y-116695220D03*
D11*
%TO.P,R26,1*%
%TO.N,Net-(R26-Pad1)*%
X85926676Y-131935220D03*
%TD*%
%TO.P,R27,1*%
%TO.N,Net-(R26-Pad1)*%
X93773752Y-131935220D03*
D12*
%TO.P,R27,2*%
%TO.N,Net-(R27-Pad2)*%
X93773752Y-116695220D03*
%TD*%
%TO.P,R28,2*%
%TO.N,Net-(R27-Pad2)*%
X101620828Y-116695220D03*
D11*
%TO.P,R28,1*%
%TO.N,Net-(R28-Pad1)*%
X101620828Y-131935220D03*
%TD*%
%TO.P,R29,1*%
%TO.N,Net-(R28-Pad1)*%
X109467904Y-131935220D03*
D12*
%TO.P,R29,2*%
%TO.N,Net-(R29-Pad2)*%
X109467904Y-116695220D03*
%TD*%
%TO.P,R30,2*%
%TO.N,Net-(R29-Pad2)*%
X117314980Y-116695220D03*
D11*
%TO.P,R30,1*%
%TO.N,Net-(R30-Pad1)*%
X117314980Y-131935220D03*
%TD*%
%TO.P,R36,1*%
%TO.N,Net-(R36-Pad1)*%
X78140560Y-137025380D03*
D12*
%TO.P,R36,2*%
%TO.N,Net-(R35-Pad2)*%
X78140560Y-152265380D03*
%TD*%
%TO.P,R35,2*%
%TO.N,Net-(R35-Pad2)*%
X85813900Y-152184100D03*
D11*
%TO.P,R35,1*%
%TO.N,Net-(R34-Pad1)*%
X85813900Y-136944100D03*
%TD*%
%TO.P,R34,1*%
%TO.N,Net-(R34-Pad1)*%
X94079060Y-152151080D03*
D12*
%TO.P,R34,2*%
%TO.N,Net-(R33-Pad2)*%
X94079060Y-136911080D03*
%TD*%
%TO.P,R33,2*%
%TO.N,Net-(R33-Pad2)*%
X101654356Y-136911080D03*
D11*
%TO.P,R33,1*%
%TO.N,Net-(R32-Pad1)*%
X101654356Y-152151080D03*
%TD*%
%TO.P,R32,1*%
%TO.N,Net-(R32-Pad1)*%
X109501432Y-152151080D03*
D12*
%TO.P,R32,2*%
%TO.N,Net-(R31-Pad2)*%
X109501432Y-136911080D03*
%TD*%
%TO.P,R31,2*%
%TO.N,Net-(R31-Pad2)*%
X117348508Y-136911080D03*
D11*
%TO.P,R31,1*%
%TO.N,Net-(R30-Pad1)*%
X117348508Y-152151080D03*
%TD*%
D12*
%TO.P,R41,2*%
%TO.N,Net-(R41-Pad2)*%
X109526324Y-157213300D03*
D11*
%TO.P,R41,1*%
%TO.N,Net-(R40-Pad1)*%
X109526324Y-172453300D03*
%TD*%
%TO.P,R42,1*%
%TO.N,Net-(R42-Pad1)*%
X117373400Y-172453300D03*
D12*
%TO.P,R42,2*%
%TO.N,Net-(R41-Pad2)*%
X117373400Y-157213300D03*
%TD*%
%TO.P,R43,2*%
%TO.N,Net-(R43-Pad2)*%
X117497860Y-193083180D03*
D11*
%TO.P,R43,1*%
%TO.N,Net-(R42-Pad1)*%
X117497860Y-177843180D03*
%TD*%
%TO.P,R44,1*%
%TO.N,Net-(R44-Pad1)*%
X109650784Y-177843180D03*
D12*
%TO.P,R44,2*%
%TO.N,Net-(R43-Pad2)*%
X109650784Y-193083180D03*
%TD*%
%TO.P,R45,2*%
%TO.N,Net-(R45-Pad2)*%
X101803708Y-193083180D03*
D11*
%TO.P,R45,1*%
%TO.N,Net-(R44-Pad1)*%
X101803708Y-177843180D03*
%TD*%
%TO.P,R46,1*%
%TO.N,Net-(R46-Pad1)*%
X93956632Y-177843180D03*
D12*
%TO.P,R46,2*%
%TO.N,Net-(R45-Pad2)*%
X93956632Y-193083180D03*
%TD*%
%TO.P,R47,2*%
%TO.N,Net-(R47-Pad2)*%
X86109556Y-193083180D03*
D11*
%TO.P,R47,1*%
%TO.N,Net-(R46-Pad1)*%
X86109556Y-177843180D03*
%TD*%
%TO.P,R48,1*%
%TO.N,Net-(R48-Pad1)*%
X78409800Y-177843180D03*
D12*
%TO.P,R48,2*%
%TO.N,Net-(R47-Pad2)*%
X78409800Y-193083180D03*
%TD*%
%TO.P,R49,2*%
%TO.N,Net-(R49-Pad2)*%
X78544420Y-197943172D03*
D11*
%TO.P,R49,1*%
%TO.N,Net-(R48-Pad1)*%
X78544420Y-213183172D03*
%TD*%
%TO.P,R50,1*%
%TO.N,Net-(R50-Pad1)*%
X86119716Y-213183172D03*
D12*
%TO.P,R50,2*%
%TO.N,Net-(R49-Pad2)*%
X86119716Y-197943172D03*
%TD*%
%TO.P,R60,2*%
%TO.N,Net-(R59-Pad2)*%
X78559152Y-218463832D03*
D11*
%TO.P,R60,1*%
%TO.N,Net-(R60-Pad1)*%
X78559152Y-233703832D03*
%TD*%
D12*
%TO.P,R59,2*%
%TO.N,Net-(R59-Pad2)*%
X86406228Y-218463832D03*
D11*
%TO.P,R59,1*%
%TO.N,Net-(R58-Pad1)*%
X86406228Y-233703832D03*
%TD*%
D12*
%TO.P,R58,2*%
%TO.N,Net-(R57-Pad2)*%
X94253304Y-218463832D03*
D11*
%TO.P,R58,1*%
%TO.N,Net-(R58-Pad1)*%
X94253304Y-233703832D03*
%TD*%
%TO.P,R57,1*%
%TO.N,Net-(R56-Pad1)*%
X102100380Y-233703832D03*
D12*
%TO.P,R57,2*%
%TO.N,Net-(R57-Pad2)*%
X102100380Y-218463832D03*
%TD*%
%TO.P,R56,2*%
%TO.N,Net-(R55-Pad2)*%
X109781340Y-233776520D03*
D11*
%TO.P,R56,1*%
%TO.N,Net-(R56-Pad1)*%
X109781340Y-218536520D03*
%TD*%
%TO.P,R55,1*%
%TO.N,Net-(R54-Pad1)*%
X117543580Y-218536520D03*
D12*
%TO.P,R55,2*%
%TO.N,Net-(R55-Pad2)*%
X117543580Y-233776520D03*
%TD*%
%TO.P,R54,2*%
%TO.N,Net-(R53-Pad2)*%
X117554248Y-213188216D03*
D11*
%TO.P,R54,1*%
%TO.N,Net-(R54-Pad1)*%
X117554248Y-197948216D03*
%TD*%
%TO.P,R53,1*%
%TO.N,Net-(R52-Pad1)*%
X109707172Y-197948216D03*
D12*
%TO.P,R53,2*%
%TO.N,Net-(R53-Pad2)*%
X109707172Y-213188216D03*
%TD*%
%TO.P,R52,2*%
%TO.N,Net-(R51-Pad2)*%
X101860096Y-213188216D03*
D11*
%TO.P,R52,1*%
%TO.N,Net-(R52-Pad1)*%
X101860096Y-197948216D03*
%TD*%
%TO.P,R51,1*%
%TO.N,Net-(R50-Pad1)*%
X94094300Y-197948216D03*
D12*
%TO.P,R51,2*%
%TO.N,Net-(R51-Pad2)*%
X94094300Y-213188216D03*
%TD*%
%TO.P,R61,2*%
%TO.N,Net-(R61-Pad2)*%
X78409800Y-239382880D03*
D11*
%TO.P,R61,1*%
%TO.N,Net-(R60-Pad1)*%
X78409800Y-254622880D03*
%TD*%
%TO.P,R62,1*%
%TO.N,Net-(R62-Pad1)*%
X86254336Y-254622880D03*
D12*
%TO.P,R62,2*%
%TO.N,Net-(R61-Pad2)*%
X86254336Y-239382880D03*
%TD*%
D11*
%TO.P,R63,1*%
%TO.N,Net-(R62-Pad1)*%
X94101412Y-254622880D03*
D12*
%TO.P,R63,2*%
%TO.N,Net-(R63-Pad2)*%
X94101412Y-239382880D03*
%TD*%
%TO.P,R64,2*%
%TO.N,Net-(R63-Pad2)*%
X101948488Y-239382880D03*
D11*
%TO.P,R64,1*%
%TO.N,Net-(R64-Pad1)*%
X101948488Y-254622880D03*
%TD*%
%TO.P,R65,1*%
%TO.N,Net-(R64-Pad1)*%
X109795564Y-254622880D03*
D12*
%TO.P,R65,2*%
%TO.N,Net-(R65-Pad2)*%
X109795564Y-239382880D03*
%TD*%
%TO.P,R66,2*%
%TO.N,Net-(R65-Pad2)*%
X117642640Y-239382880D03*
D11*
%TO.P,R66,1*%
%TO.N,Net-(R66-Pad1)*%
X117642640Y-254622880D03*
%TD*%
%TO.P,R67,1*%
%TO.N,Net-(R66-Pad1)*%
X117591840Y-259776504D03*
D12*
%TO.P,R67,2*%
%TO.N,Net-(R67-Pad2)*%
X117591840Y-275016504D03*
%TD*%
%TO.P,R68,2*%
%TO.N,Net-(R67-Pad2)*%
X109744764Y-275016504D03*
D11*
%TO.P,R68,1*%
%TO.N,Net-(R68-Pad1)*%
X109744764Y-259776504D03*
%TD*%
%TO.P,R69,1*%
%TO.N,Net-(R68-Pad1)*%
X101897688Y-259776504D03*
D12*
%TO.P,R69,2*%
%TO.N,Net-(R69-Pad2)*%
X101897688Y-275016504D03*
%TD*%
%TO.P,R70,2*%
%TO.N,Net-(R69-Pad2)*%
X94050612Y-275016504D03*
D11*
%TO.P,R70,1*%
%TO.N,Net-(R70-Pad1)*%
X94050612Y-259776504D03*
%TD*%
%TO.P,R80,1*%
%TO.N,Net-(J2-Pad1)*%
X109861604Y-314959456D03*
D12*
%TO.P,R80,2*%
%TO.N,Net-(R79-Pad2)*%
X109861604Y-299719456D03*
%TD*%
%TO.P,R79,2*%
%TO.N,Net-(R79-Pad2)*%
X117655340Y-299719456D03*
D11*
%TO.P,R79,1*%
%TO.N,Net-(R78-Pad1)*%
X117655340Y-314959456D03*
%TD*%
%TO.P,R78,1*%
%TO.N,Net-(R78-Pad1)*%
X117772180Y-279783352D03*
D12*
%TO.P,R78,2*%
%TO.N,Net-(R77-Pad2)*%
X117772180Y-295023352D03*
%TD*%
%TO.P,R77,2*%
%TO.N,Net-(R77-Pad2)*%
X109874304Y-295023352D03*
D11*
%TO.P,R77,1*%
%TO.N,Net-(R76-Pad1)*%
X109874304Y-279783352D03*
%TD*%
%TO.P,R76,1*%
%TO.N,Net-(R76-Pad1)*%
X102027228Y-279783352D03*
D12*
%TO.P,R76,2*%
%TO.N,Net-(R75-Pad2)*%
X102027228Y-295023352D03*
%TD*%
%TO.P,R75,2*%
%TO.N,Net-(R75-Pad2)*%
X94180152Y-295023352D03*
D11*
%TO.P,R75,1*%
%TO.N,Net-(R74-Pad1)*%
X94180152Y-279783352D03*
%TD*%
%TO.P,R74,1*%
%TO.N,Net-(R74-Pad1)*%
X86333076Y-279783352D03*
D12*
%TO.P,R74,2*%
%TO.N,Net-(R73-Pad2)*%
X86333076Y-295023352D03*
%TD*%
%TO.P,R73,2*%
%TO.N,Net-(R73-Pad2)*%
X78486000Y-295023352D03*
D11*
%TO.P,R73,1*%
%TO.N,Net-(R72-Pad1)*%
X78486000Y-279783352D03*
%TD*%
%TO.P,R72,1*%
%TO.N,Net-(R72-Pad1)*%
X78508860Y-275084540D03*
D12*
%TO.P,R72,2*%
%TO.N,Net-(R71-Pad2)*%
X78508860Y-259844540D03*
%TD*%
%TO.P,R71,2*%
%TO.N,Net-(R71-Pad2)*%
X86332060Y-259765800D03*
D11*
%TO.P,R71,1*%
%TO.N,Net-(R70-Pad1)*%
X86332060Y-275005800D03*
%TD*%
%TO.P,R81,1*%
%TO.N,Net-(J2-Pad1)*%
X102036880Y-314980320D03*
D12*
%TO.P,R81,2*%
%TO.N,Net-(R81-Pad2)*%
X102036880Y-299740320D03*
%TD*%
%TO.P,R82,2*%
%TO.N,Net-(R82-Pad2)*%
X79085440Y-299862240D03*
D11*
%TO.P,R82,1*%
%TO.N,Net-(R81-Pad2)*%
X94325440Y-299862240D03*
%TD*%
M02*
